# Blender 3.6.2
# www.blender.org
mtllib untitled.mtl
o Cube
v 1.000000 1.000000 -1.000000
v 1.000000 -1.000000 -1.000000
v 1.000000 1.000000 1.000000
v 1.000000 -1.000000 1.000000
v -1.000000 1.000000 -1.000000
v -1.000000 -1.000000 -1.000000
v -1.000000 1.000000 1.000000
v -1.000000 -1.000000 1.000000
v 1.000000 1.000000 -1.000000
v 1.000000 1.000000 1.000000
v -1.000000 3.000000 -1.000000
v -1.000000 1.000000 -1.000000
v -1.000000 3.000000 1.000000
v -1.000000 1.000000 1.000000
v 0.858579 2.541421 -1.000000
v 1.000000 2.200000 -1.000000
v 1.000000 2.200000 1.000000
v 0.858579 2.541421 1.000000
v 0.200000 3.000000 -1.000000
v 0.541421 2.858579 -1.000000
v 0.541421 2.858579 1.000000
v 0.200000 3.000000 1.000000
vn -0.0000 1.0000 -0.0000
vn -0.0000 -0.0000 1.0000
vn -1.0000 -0.0000 -0.0000
vn -0.0000 -1.0000 -0.0000
vn 1.0000 -0.0000 -0.0000
vn -0.0000 -0.0000 -1.0000
vn 0.9239 0.3827 -0.0000
vn 0.3827 0.9239 -0.0000
vn 0.7071 0.7071 -0.0000
vt 0.625000 0.500000
vt 0.875000 0.500000
vt 0.875000 0.750000
vt 0.625000 0.750000
vt 0.375000 0.750000
vt 0.625000 1.000000
vt 0.375000 1.000000
vt 0.375000 0.000000
vt 0.625000 0.000000
vt 0.625000 0.250000
vt 0.375000 0.250000
vt 0.125000 0.500000
vt 0.375000 0.500000
vt 0.125000 0.750000
vt 0.625000 0.400000
vt 0.607322 0.442678
vt 0.567678 0.482322
vt 0.525000 0.500000
vt 0.525000 0.750000
vt 0.725000 0.500000
vt 0.725000 0.750000
vt 0.585355 0.500000
vt 0.585355 0.750000
vt 0.567678 0.767678
vt 0.607322 0.807322
vt 0.625000 0.850000
vt 0.664645 0.750000
vt 0.664645 0.500000
s 0
usemtl Material.005
f 1/1/1 5/2/1 7/3/1 3/4/1
f 4/5/2 3/4/2 7/6/2 8/7/2
f 8/8/3 7/9/3 5/10/3 6/11/3
f 6/12/4 2/13/4 4/5/4 8/14/4
f 2/13/5 1/1/5 3/4/5 4/5/5
f 6/11/6 5/10/6 1/1/6 2/13/6
usemtl Material.006
f 14/8/3 13/9/3 11/10/3 12/11/3
f 12/12/4 9/13/4 10/5/4 14/14/4
f 12/11/6 11/10/6 19/15/6 20/16/6 15/17/6 16/18/6 9/13/6
f 9/13/5 16/18/5 17/19/5 10/5/5
f 19/20/1 11/2/1 13/3/1 22/21/1
f 17/19/7 16/18/7 15/22/7 18/23/7
f 10/5/2 17/19/2 18/24/2 21/25/2 22/26/2 13/6/2 14/7/2
f 19/20/8 22/21/8 21/27/8 20/28/8
f 20/28/9 21/27/9 18/23/9 15/22/9
