# Blender 3.6.2
# www.blender.org
mtllib cube_block_outward2.mtl
o Cube.002
v 1.000000 1.000000 1.000000
v 1.000000 -1.000000 1.000000
v -1.000000 1.000000 -1.000000
v -1.000000 -1.000000 -1.000000
v -1.000000 -1.000000 1.000000
v 0.541421 1.000000 -0.858579
v 0.200000 1.000000 -1.000000
v 0.200000 -1.000000 -1.000000
v 0.541421 -1.000000 -0.858579
v 1.000000 1.000000 -0.200000
v 0.858579 1.000000 -0.541421
v 0.858579 -1.000000 -0.541421
v 1.000000 -1.000000 -0.200000
v 1.000000 1.000000 1.000000
v -1.000000 1.000000 -1.000000
v -1.000000 3.000000 1.000000
v 0.541421 2.200000 -0.858579
v 0.200000 2.200000 -1.000000
v 0.200000 2.541421 -0.858579
v 0.563299 2.563299 -0.673401
v 0.200000 2.858579 -0.541421
v 0.200000 3.000000 -0.200000
v 0.541421 2.858579 -0.200000
v 0.563299 2.673401 -0.563299
v 0.858579 2.200000 -0.541421
v 0.673401 2.563299 -0.563299
v 0.858579 2.541421 -0.200000
v 1.000000 2.200000 -0.200000
v 0.200000 1.000000 -1.000000
v 0.541421 1.000000 -0.858579
v 0.858579 1.000000 -0.541421
v 1.000000 1.000000 -0.200000
v 1.000000 2.200000 1.000000
v 0.858579 2.541421 1.000000
v 0.541421 2.858579 1.000000
v 0.200000 3.000000 1.000000
v -1.000000 3.000000 -0.200000
v -1.000000 2.858579 -0.541421
v -1.000000 2.541421 -0.858579
v -1.000000 2.200000 -1.000000
vn -0.0000 -0.0000 -1.0000
vn -0.0000 -1.0000 -0.0000
vn 0.3827 -0.0000 -0.9239
vn 1.0000 -0.0000 -0.0000
vn 0.9239 -0.0000 -0.3827
vn 0.7071 -0.0000 -0.7071
vn 0.5773 0.5773 -0.5774
vn -0.0000 1.0000 -0.0000
vn 0.7071 0.7071 -0.0000
vn -0.0000 0.7071 -0.7071
vn 0.3793 0.3793 -0.8439
vn 0.3793 0.8439 -0.3793
vn 0.8439 0.3793 -0.3793
vn 0.6739 0.3029 -0.6739
vn 0.3029 0.6739 -0.6739
vn 0.6739 0.6739 -0.3029
vn 0.3827 0.9239 -0.0000
vn 0.9239 0.3827 -0.0000
vn -0.0000 0.9239 -0.3827
vn -0.0000 0.3827 -0.9239
vt 0.375000 0.250000
vt 0.625000 0.250000
vt 0.625000 0.400000
vt 0.375000 0.400000
vt 0.125000 0.500000
vt 0.275000 0.500000
vt 0.317678 0.517678
vt 0.357322 0.557322
vt 0.375000 0.600000
vt 0.375000 0.750000
vt 0.125000 0.750000
vt 0.625000 0.460355
vt 0.375000 0.460355
vt 0.625000 0.600000
vt 0.625000 0.750000
vt 0.375000 0.539645
vt 0.625000 0.539645
vt 0.525000 0.600000
vt 0.525000 0.750000
vt 0.525000 0.250000
vt 0.525000 0.400000
vt 0.570412 0.445412
vt 0.584175 0.445412
vt 0.570412 0.459175
vt 0.725000 0.600000
vt 0.875000 0.600000
vt 0.875000 0.750000
vt 0.725000 0.750000
vt 0.664645 0.600000
vt 0.664645 0.750000
vt 0.585355 0.750000
vt 0.585355 0.600000
vt 0.607322 0.250000
vt 0.607322 0.400000
vt 0.567678 0.400000
vt 0.567678 0.250000
vt 0.550000 0.442678
vt 0.550000 0.425000
vt 0.567678 0.425000
vt 0.607322 0.425000
vt 0.625000 0.425000
vt 0.607322 0.442678
vt 0.550000 0.482322
vt 0.567678 0.482322
vt 0.550000 0.500000
vt 0.525000 0.539645
vt 0.525000 0.460355
s 0
usemtl Material.003
f 4/1/1 3/2/1 7/3/1 8/4/1
f 4/5/2 8/6/2 9/7/2 12/8/2 13/9/2 2/10/2 5/11/2
f 8/4/3 7/3/3 6/12/3 9/13/3
f 13/9/4 10/14/4 1/15/4 2/10/4
f 10/14/5 13/9/5 12/16/5 11/17/5
f 11/17/6 12/16/6 9/13/6 6/12/6
usemtl Material.004
f 32/9/4 28/18/4 33/19/4 14/10/4
f 15/1/1 40/20/1 18/21/1 29/4/1
f 20/22/7 24/23/7 26/24/7
f 22/25/8 37/26/8 16/27/8 36/28/8
f 23/29/9 35/30/9 34/31/9 27/32/9
f 38/33/10 21/34/10 19/35/10 39/36/10
f 17/37/11 18/38/11 19/39/11 20/22/11
f 21/40/12 22/41/12 23/42/12 24/23/12
f 25/43/13 26/24/13 27/44/13 28/45/13
f 25/43/14 17/37/14 20/22/14 26/24/14
f 19/35/15 21/34/15 24/23/15 20/22/15
f 23/42/16 27/44/16 26/24/16 24/23/16
f 28/18/5 32/9/5 31/16/5 25/46/5
f 29/4/3 18/21/3 17/47/3 30/13/3
f 22/25/17 36/28/17 35/30/17 23/29/17
f 33/19/18 28/18/18 27/32/18 34/31/18
f 37/2/19 22/3/19 21/34/19 38/33/19
f 18/21/20 40/20/20 39/36/20 19/35/20
f 25/46/6 31/16/6 30/13/6 17/47/6
