# Blender 3.6.2
# www.blender.org
mtllib cube_block_side2.mtl
o Cube
v 1.000000 1.000000 -1.000000
v 1.000000 -1.000000 -1.000000
v 1.000000 1.000000 1.000000
v 1.000000 -1.000000 1.000000
v -1.000000 -1.000000 -1.000000
v -1.000000 -1.000000 1.000000
v 1.000000 1.000000 -1.000000
v 1.000000 1.000000 1.000000
v -1.000000 3.000000 -1.000000
v -1.000000 3.000000 1.000000
v 0.858579 2.541421 -1.000000
v 1.000000 2.200000 -1.000000
v 1.000000 2.200000 1.000000
v 0.858579 2.541421 1.000000
v 0.200000 3.000000 -1.000000
v 0.541421 2.858579 -1.000000
v 0.541421 2.858579 1.000000
v 0.200000 3.000000 1.000000
vn -0.0000 -1.0000 -0.0000
vn 1.0000 -0.0000 -0.0000
vn -0.0000 1.0000 -0.0000
vn 0.9239 0.3827 -0.0000
vn 0.3827 0.9239 -0.0000
vn 0.7071 0.7071 -0.0000
vt 0.125000 0.500000
vt 0.375000 0.500000
vt 0.375000 0.750000
vt 0.125000 0.750000
vt 0.625000 0.500000
vt 0.625000 0.750000
vt 0.525000 0.500000
vt 0.525000 0.750000
vt 0.725000 0.500000
vt 0.875000 0.500000
vt 0.875000 0.750000
vt 0.725000 0.750000
vt 0.585355 0.500000
vt 0.585355 0.750000
vt 0.664645 0.750000
vt 0.664645 0.500000
s 0
usemtl Material.005
f 5/1/1 2/2/1 4/3/1 6/4/1
f 2/2/2 1/5/2 3/6/2 4/3/2
usemtl Material.006
f 7/2/2 12/7/2 13/8/2 8/3/2
f 15/9/3 9/10/3 10/11/3 18/12/3
f 13/8/4 12/7/4 11/13/4 14/14/4
f 15/9/5 18/12/5 17/15/5 16/16/5
f 16/16/6 17/15/6 14/14/6 11/13/6
