# Blender 3.6.2
# www.blender.org
mtllib door_building.mtl
o Cube
v -1.710642 0.000000 2.311683
v 1.000000 3.000000 -2.000000
v 1.000000 4.000000 -1.000000
v -2.000000 0.000000 1.550000
v -1.710642 4.000000 2.311683
v 2.000000 3.000000 -1.000000
v 1.000000 3.499344 -1.866404
v -2.000000 4.000000 1.550000
v 1.499344 3.000000 -1.866404
v -2.311683 0.000000 1.710642
v 1.478212 3.478211 -1.736633
v -1.775000 0.000000 1.610289
v -2.311683 4.000000 1.710642
v 1.499344 3.866404 -1.000000
v -1.775000 4.000000 1.610289
v 1.000000 3.866404 -1.499344
v 0.311683 0.000000 0.289358
v 1.478212 3.736633 -1.478212
v -1.610289 0.000000 1.775000
v 1.866404 3.000000 -1.499344
v -1.610289 4.000000 1.775000
v 1.866404 3.499344 -1.000000
v 1.736633 3.478212 -1.478212
v 0.311683 4.000000 0.289358
v -0.289358 0.000000 -0.311683
v 1.000000 0.000000 -1.000000
v -1.550000 0.000000 2.000000
v 1.000000 1.000000 -2.000000
v 2.000000 1.000000 -1.000000
v -0.289358 4.000000 -0.311683
v -1.550000 4.000000 2.000000
v 1.000000 0.133596 -1.499344
v 1.499344 0.133596 -1.000000
v -1.610289 0.000000 2.225000
v 1.478212 0.263367 -1.478212
v -1.610289 4.000000 2.225000
v 1.499344 1.000000 -1.866404
v -1.775000 0.000000 2.389711
v 1.000000 0.500656 -1.866404
v -1.775000 4.000000 2.389711
v 1.478212 0.521788 -1.736633
v -2.000000 0.000000 2.450000
v 1.866404 0.500656 -1.000000
v -2.000000 4.000000 2.450000
v -2.225000 0.000000 2.389711
v 1.866404 1.000000 -1.499344
v 1.736633 0.521788 -1.478212
v -2.225000 4.000000 2.389711
v -2.389711 0.000000 2.225000
v 2.000000 3.000000 1.000000
v 1.000000 4.000000 1.000000
v -2.389711 4.000000 2.225000
v 1.000000 3.000000 2.000000
v -2.450000 0.000000 2.000000
v -2.450000 4.000000 2.000000
v 1.866404 3.499344 1.000000
v -2.389711 0.000000 1.775000
v 1.866404 3.000000 1.499344
v 1.736633 3.478211 1.478212
v -2.389711 4.000000 1.775000
v -2.225000 0.000000 1.610289
v 1.000000 3.866404 1.499344
v -2.225000 4.000000 1.610289
v 1.499344 3.866404 1.000000
v 1.478212 3.736633 1.478212
v -1.728865 4.000000 2.293460
v 1.499344 3.000000 1.866404
v -2.293460 0.000000 1.728865
v 1.000000 3.499344 1.866404
v -2.206326 4.000000 1.605285
v 1.478212 3.478212 1.736633
v -2.206326 0.000000 1.605285
v -1.605285 4.000000 2.206326
v 2.000000 1.000000 1.000000
v 1.000000 1.000000 2.000000
v -1.605285 0.000000 2.206326
v 1.000000 0.000000 1.000000
v -1.558044 4.000000 2.030023
v -2.030023 0.000000 1.558044
v 1.866404 1.000000 1.499344
v 1.866404 0.500656 1.000000
v -2.269856 0.000000 1.687981
v -1.610289 4.000000 2.126453
v 1.736633 0.521788 1.478212
v -1.687981 4.000000 2.269856
v 1.000000 0.500656 1.866404
v 1.499344 1.000000 1.866404
v 1.478212 0.521788 1.736633
v 1.499344 0.133596 1.000000
v 1.000000 0.133596 1.499344
v 1.478212 0.263367 1.478212
v -1.000000 3.000000 -2.000000
v -2.000000 3.000000 -1.000000
v -1.000000 4.000000 -1.000000
v -1.499344 3.000000 -1.866404
v -1.000000 3.499344 -1.866404
v -1.478212 3.478212 -1.736633
v -1.866404 3.499344 -1.000000
v -1.866404 3.000000 -1.499344
v -1.736633 3.478211 -1.478212
v -1.000000 3.866404 -1.499344
v -1.499344 3.866404 -1.000000
v -1.478212 3.736633 -1.478212
v -2.000000 1.000000 -1.000000
v -1.000000 1.000000 -2.000000
v -1.000000 0.000000 -1.000000
v -1.866404 1.000000 -1.499344
v -1.866404 0.500656 -1.000000
v -1.736633 0.521788 -1.478212
v -1.000000 0.500656 -1.866404
v -1.499344 1.000000 -1.866404
v -1.478212 0.521788 -1.736633
v -1.499344 0.133596 -1.000000
v -1.000000 0.133596 -1.499344
v -1.478212 0.263367 -1.478212
v -2.000000 3.000000 1.000000
v -1.000000 3.000000 2.000000
v -1.000000 4.000000 1.000000
v -1.866404 3.499344 1.000000
v -1.000000 3.499344 1.866404
v -1.000000 0.000000 1.000000
v -1.000000 1.000000 2.000000
v -2.000000 1.000000 1.000000
v -1.000000 0.500656 1.866404
v -1.866404 0.500656 1.000000
v -1.858312 3.257271 1.257271
v -1.915791 3.000000 1.314750
v -1.809763 3.490120 1.208722
v -1.257271 3.257271 1.858312
v -1.208722 3.490120 1.809763
v -1.314750 3.000000 1.915791
v -1.000000 3.764707 1.601041
v -1.601041 3.764707 1.000000
v -1.000000 0.235293 1.601041
v -1.208722 0.509880 1.809763
v -1.314750 1.000000 1.915791
v -1.257271 0.742729 1.858312
v -1.858312 0.742729 1.257271
v -1.809763 0.509880 1.208722
v -1.915791 1.000000 1.314750
v -1.601041 0.235293 1.000000
v -1.000000 0.000000 0.398959
v -1.499344 0.133596 0.898303
v -0.991446 4.000000 1.000000
v -0.398959 4.000000 1.000000
v -0.898303 3.866404 1.499344
v -0.398959 0.000000 1.000000
v -0.898303 0.133596 1.499344
v -1.000000 4.000000 0.974852
v -1.000000 4.000000 0.398959
v -1.499344 3.866404 0.898303
v -0.300520 0.000000 -0.300520
v -0.297021 0.000000 -0.297021
v -0.947321 4.000000 0.947321
vn -0.0000 -1.0000 -0.0000
vn -1.0000 -0.0000 -0.0000
vn -0.0000 -0.0000 1.0000
vn -0.0000 1.0000 -0.0000
vn 1.0000 -0.0000 -0.0000
vn 0.2566 0.2566 -0.9318
vn 0.2178 0.6901 -0.6901
vn 0.2566 0.9318 -0.2566
vn 0.6901 0.6901 -0.2178
vn 0.9318 0.2566 -0.2566
vn 0.6901 0.2178 -0.6901
vn 0.5774 0.5774 -0.5774
vn 0.2566 -0.9318 -0.2566
vn 0.2178 -0.6901 -0.6901
vn 0.2566 -0.2566 -0.9318
vn 0.6901 -0.2178 -0.6901
vn 0.9318 -0.2566 -0.2566
vn 0.6901 -0.6901 -0.2178
vn 0.5774 -0.5774 -0.5773
vn 0.9318 0.2566 0.2566
vn 0.6901 0.6901 0.2178
vn 0.2566 0.9318 0.2566
vn 0.2178 0.6901 0.6901
vn 0.2566 0.2566 0.9318
vn 0.6901 0.2178 0.6901
vn 0.5774 0.5773 0.5774
vn 0.9318 -0.2566 0.2566
vn 0.6901 -0.2178 0.6901
vn 0.2566 -0.2566 0.9318
vn 0.2178 -0.6901 0.6901
vn 0.2566 -0.9318 0.2566
vn 0.6901 -0.6901 0.2178
vn 0.5774 -0.5774 0.5774
vn -0.2566 0.2566 -0.9318
vn -0.6901 0.2178 -0.6901
vn -0.9318 0.2566 -0.2566
vn -0.6901 0.6901 -0.2178
vn -0.2566 0.9318 -0.2566
vn -0.2178 0.6901 -0.6901
vn -0.5773 0.5774 -0.5774
vn -0.9318 -0.2566 -0.2566
vn -0.6901 -0.2178 -0.6901
vn -0.2566 -0.2566 -0.9318
vn -0.2178 -0.6901 -0.6901
vn -0.2566 -0.9318 -0.2566
vn -0.6901 -0.6901 -0.2178
vn -0.5774 -0.5774 -0.5774
vn -0.9318 0.2539 0.2593
vn -0.2593 0.2539 0.9318
vn -0.2178 0.6901 0.6901
vn -0.6901 0.6901 0.2178
vn -0.2178 -0.6901 0.6901
vn -0.2593 -0.2539 0.9318
vn -0.9318 -0.2539 0.2593
vn -0.6901 -0.6901 0.2178
vn -0.2585 -0.9660 -0.0000
vn -0.7071 -0.7071 -0.0000
vn -0.9660 -0.2585 -0.0000
vn -0.0000 -0.9660 -0.2585
vn -0.0000 -0.7071 -0.7071
vn -0.0000 -0.2585 -0.9660
vn 0.9660 -0.0000 -0.2585
vn 0.7071 -0.0000 -0.7071
vn 0.2585 -0.0000 -0.9660
vn -0.2585 -0.0000 0.9660
vn -0.9660 -0.0000 0.2585
vn 0.2585 -0.0000 0.9660
vn 0.7071 -0.0000 0.7071
vn 0.9660 -0.0000 0.2585
vn -0.2585 -0.0000 -0.9660
vn -0.7071 -0.0000 -0.7071
vn -0.9660 -0.0000 -0.2585
vn -0.0000 0.9660 0.2585
vn -0.0000 0.7071 0.7071
vn -0.0000 0.2585 0.9660
vn 0.2585 0.9660 -0.0000
vn 0.7071 0.7071 -0.0000
vn 0.9660 0.2585 -0.0000
vn -0.0000 -0.9660 0.2585
vn -0.0000 -0.7071 0.7071
vn -0.0000 -0.2585 0.9660
vn -0.2585 0.9660 -0.0000
vn -0.7071 0.7071 -0.0000
vn -0.9660 0.2585 -0.0000
vn -0.0000 0.9660 -0.2585
vn -0.0000 0.7071 -0.7071
vn -0.0000 0.2585 -0.9660
vn 0.2585 -0.9660 -0.0000
vn 0.7071 -0.7071 -0.0000
vn 0.9660 -0.2585 -0.0000
vn -0.0000 -0.0000 -1.0000
vn 0.9659 -0.0000 0.2588
vn 0.2588 -0.0000 0.9659
vn -0.2588 -0.0000 0.9659
vn -0.7071 -0.0000 0.7071
vn -0.9659 -0.0000 0.2588
vn -0.9659 -0.0000 -0.2588
vn -0.2588 -0.0000 -0.9659
vt 0.187500 0.562500
vt 0.312500 0.562500
vt 0.312500 0.687500
vt 0.225065 0.687500
vt 0.269480 0.643085
vt 0.231915 0.605520
vt 0.231217 0.606218
vt 0.187500 0.649935
vt 0.231436 0.606436
vt 0.187500 0.687500
vt 0.437500 0.062500
vt 0.562500 0.062500
vt 0.562500 0.187500
vt 0.437500 0.187500
vt 0.437500 0.812500
vt 0.562500 0.812500
vt 0.562500 0.937500
vt 0.437500 0.937500
vt 0.687500 0.687500
vt 0.687500 0.562500
vt 0.812500 0.562500
vt 0.812500 0.649935
vt 0.768085 0.605520
vt 0.730520 0.643085
vt 0.774935 0.687500
vt 0.812500 0.685928
vt 0.812500 0.687500
vt 0.811965 0.687500
vt 0.809208 0.684208
vt 0.437500 0.562500
vt 0.562500 0.562500
vt 0.562500 0.687500
vt 0.437500 0.687500
vt 0.562500 0.437500
vt 0.593709 0.437500
vt 0.592388 0.467388
vt 0.562500 0.468709
vt 0.625000 0.437500
vt 0.625000 0.467388
vt 0.656291 0.562500
vt 0.657612 0.500000
vt 0.687500 0.500000
vt 0.593709 0.562500
vt 0.592388 0.532612
vt 0.562500 0.531291
vt 0.592388 0.483540
vt 0.312500 0.531291
vt 0.342388 0.532612
vt 0.343709 0.562500
vt 0.312500 0.500000
vt 0.342388 0.500000
vt 0.437500 0.437500
vt 0.437500 0.468709
vt 0.375000 0.467388
vt 0.375000 0.437500
vt 0.437500 0.531291
vt 0.407612 0.532612
vt 0.406291 0.562500
vt 0.358540 0.532612
vt 0.593709 0.687500
vt 0.592388 0.717388
vt 0.562500 0.718709
vt 0.656291 0.687500
vt 0.657612 0.750000
vt 0.687500 0.750000
vt 0.625000 0.812500
vt 0.593709 0.812500
vt 0.592388 0.782612
vt 0.625000 0.782612
vt 0.562500 0.781291
vt 0.592388 0.766460
vt 0.437500 0.718709
vt 0.407612 0.717388
vt 0.406291 0.687500
vt 0.437500 0.781291
vt 0.375000 0.782612
vt 0.375000 0.812500
vt 0.312500 0.750000
vt 0.312500 0.718709
vt 0.342388 0.717388
vt 0.342388 0.750000
vt 0.343709 0.687500
vt 0.358540 0.717388
vt 0.562500 0.312500
vt 0.562500 0.281291
vt 0.592388 0.282612
vt 0.593709 0.312500
vt 0.562500 0.218709
vt 0.592388 0.217388
vt 0.593709 0.187500
vt 0.625000 0.187500
vt 0.625000 0.217388
vt 0.812500 0.500000
vt 0.875000 0.532612
vt 0.875000 0.562500
vt 0.625000 0.312500
vt 0.625000 0.250000
vt 0.592388 0.233540
vt 0.437500 0.218709
vt 0.375000 0.217388
vt 0.375000 0.187500
vt 0.437500 0.281291
vt 0.375000 0.282612
vt 0.437500 0.312500
vt 0.375000 0.312500
vt 0.187500 0.500000
vt 0.187500 0.531291
vt 0.157612 0.532612
vt 0.157612 0.500000
vt 0.156291 0.562500
vt 0.125000 0.562500
vt 0.125000 0.532612
vt 0.593709 0.062500
vt 0.562500 0.042828
vt 0.578609 0.046391
vt 0.593132 0.049455
vt 0.578609 0.970489
vt 0.562500 0.976895
vt 0.593709 0.937500
vt 0.593132 0.964779
vt 0.616331 0.937500
vt 0.616331 0.062500
vt 0.187500 0.750000
vt 0.174455 0.750000
vt 0.187500 0.727378
vt 0.375000 0.950545
vt 0.375000 0.937500
vt 0.437500 0.976895
vt 0.404511 0.961502
vt 0.437500 0.042828
vt 0.375000 0.062500
vt 0.375000 0.049455
vt 0.404511 0.046391
vt 0.125000 0.687500
vt 0.147622 0.687500
vt 0.125000 0.700545
vt 0.156291 0.681144
vt 0.806144 0.750000
vt 0.625000 0.931144
vt 0.193856 0.718709
vt 0.875000 0.681144
vt 0.625000 0.068856
vt 0.375000 0.412150
vt 0.375000 0.263024
vt 0.625000 0.263024
vt 0.625000 0.412150
vt 0.616650 0.350421
vt 0.610294 0.337850
vt 0.593132 0.312047
vt 0.578579 0.306046
vt 0.562500 0.298940
vt 0.437500 0.298940
vt 0.421421 0.306046
vt 0.406867 0.312047
vt 0.389706 0.337850
vt 0.383350 0.350421
vt 0.625000 0.837850
vt 0.625000 0.986976
vt 0.375000 0.986976
vt 0.375000 0.837850
vt 0.383350 0.899579
vt 0.389706 0.912150
vt 0.406868 0.937953
vt 0.421421 0.943954
vt 0.437500 0.951060
vt 0.562500 0.951060
vt 0.578579 0.943954
vt 0.593133 0.937953
vt 0.610294 0.912150
vt 0.616650 0.899579
vt 0.250000 0.625000
vt 0.287150 0.750000
vt 0.138024 0.750000
vt 0.154194 0.718588
vt 0.164375 0.659255
vt 0.164375 0.590744
vt 0.154194 0.531412
vt 0.151842 0.526842
vt 0.138024 0.500000
vt 0.287150 0.500000
vt 0.128986 0.503986
vt 0.125000 0.750000
vt 0.125000 0.507580
vt 0.125000 0.500000
vt 0.749471 0.626779
vt 0.750000 0.625000
vt 0.748446 0.619770
vt 0.712850 0.500000
vt 0.861976 0.500000
vt 0.845806 0.531412
vt 0.835625 0.590745
vt 0.835625 0.659256
vt 0.845806 0.718588
vt 0.848159 0.723159
vt 0.861976 0.750000
vt 0.712850 0.750000
vt 0.857348 0.732348
vt 0.875000 0.742420
vt 0.875000 0.750000
vt 0.871014 0.746014
vt 0.875000 0.500000
vt 0.666667 1.000000
vt 0.666667 0.500000
vt 0.673583 0.500000
vt 0.673583 1.000000
vt 0.583333 1.000000
vt 0.583333 0.500000
vt 0.500000 1.000000
vt 0.500000 0.500000
vt 0.416667 1.000000
vt 0.416667 0.500000
vt 0.333333 1.000000
vt 0.333333 0.500000
vt 0.250000 1.000000
vt 0.250000 0.500000
vt 0.166667 1.000000
vt 0.166667 0.500000
vt 0.457846 0.130000
vt 0.460515 0.139960
vt 0.404324 0.083769
vt 0.394605 0.093488
vt 0.083769 0.404324
vt 0.139960 0.460515
vt 0.130000 0.457846
vt 0.042154 0.370000
vt 0.010000 0.250000
vt 0.042154 0.130000
vt 0.130000 0.042154
vt 0.250000 0.010000
vt 0.370000 0.042154
vt 0.083333 1.000000
vt 0.083333 0.500000
vt 0.076417 0.500000
vt 0.076417 1.000000
vt 0.639960 0.460515
vt 0.583769 0.404324
vt 0.593488 0.394605
vt 0.904324 0.083769
vt 0.960515 0.139960
vt 0.957846 0.130000
vt 0.870000 0.042154
vt 0.750000 0.010000
vt 0.630000 0.042154
vt 0.542154 0.130000
vt 0.510000 0.250000
vt 0.542154 0.370000
vt 0.630000 0.457846
s 0
usemtl Material
f 106/1/1 26/2/1 77/3/1 147/4/1 17/5/1 25/6/1 152/7/1 142/8/1
f 25/6/1 153/9/1 152/7/1
f 142/8/1 152/7/1 153/9/1 25/6/1 17/5/1 147/4/1 121/10/1
f 123/11/2 116/12/2 93/13/2 104/14/2
f 75/15/3 53/16/3 117/17/3 122/18/3
f 51/19/4 3/20/4 94/21/4 150/22/4 30/23/4 24/24/4 145/25/4
f 149/26/4 118/27/4 144/28/4 154/29/4
f 145/25/4 24/24/4 30/23/4 150/22/4 149/26/4 154/29/4 144/28/4
f 29/30/5 6/31/5 50/32/5 74/33/5
f 2/34/6 7/35/6 11/36/6 9/37/6
f 7/35/7 16/38/7 18/39/7 11/36/7
f 3/20/8 14/40/8 18/41/8 16/42/8
f 14/40/9 22/43/9 23/44/9 18/41/9
f 6/31/10 20/45/10 23/44/10 22/43/10
f 20/45/11 9/37/11 11/36/11 23/44/11
f 11/36/12 18/39/12 23/46/12
f 26/2/13 32/47/13 35/48/13 33/49/13
f 32/47/14 39/50/14 41/51/14 35/48/14
f 28/52/15 37/53/15 41/54/15 39/55/15
f 37/53/16 46/56/16 47/57/16 41/54/16
f 29/30/17 43/58/17 47/57/17 46/56/17
f 43/58/18 33/49/18 35/48/18 47/57/18
f 35/48/19 41/51/19 47/59/19
f 50/32/20 56/60/20 59/61/20 58/62/20
f 56/60/21 64/63/21 65/64/21 59/61/21
f 51/19/22 62/65/22 65/64/22 64/63/22
f 62/66/23 69/67/23 71/68/23 65/69/23
f 53/16/24 67/70/24 71/68/24 69/67/24
f 67/70/25 58/62/25 59/61/25 71/68/25
f 59/71/26 65/69/26 71/68/26
f 74/33/27 80/72/27 84/73/27 81/74/27
f 80/72/28 87/75/28 88/76/28 84/73/28
f 75/15/29 86/77/29 88/76/29 87/75/29
f 86/78/30 90/79/30 91/80/30 88/81/30
f 77/3/31 89/82/31 91/80/31 90/79/31
f 89/82/32 81/74/32 84/73/32 91/80/32
f 84/83/33 88/81/33 91/80/33
f 92/84/34 95/85/34 97/86/34 96/87/34
f 95/85/35 99/88/35 100/89/35 97/86/35
f 93/13/36 98/90/36 100/89/36 99/88/36
f 98/90/37 102/91/37 103/92/37 100/89/37
f 94/21/38 101/93/38 103/94/38 102/95/38
f 101/96/39 96/87/39 97/86/39 103/97/39
f 97/98/40 100/89/40 103/92/40
f 104/14/41 107/99/41 109/100/41 108/101/41
f 107/99/42 111/102/42 112/103/42 109/100/42
f 105/104/43 110/105/43 112/103/43 111/102/43
f 110/106/44 114/107/44 115/108/44 112/109/44
f 106/1/45 113/110/45 115/108/45 114/107/45
f 113/110/46 108/111/46 109/112/46 115/108/46
f 109/112/47 112/109/47 115/108/47
f 119/113/48 116/12/48 127/114/48 126/115/48 128/116/48
f 129/117/49 131/118/49 117/17/49 120/119/49 130/120/49
f 130/120/50 120/119/50 132/121/50
f 119/113/51 128/116/51 133/122/51
f 124/123/52 135/124/52 134/125/52
f 135/126/53 124/127/53 122/18/53 136/128/53 137/129/53
f 140/130/54 123/11/54 125/131/54 139/132/54 138/133/54
f 125/134/55 141/135/55 139/136/55
f 143/137/56 113/110/56 106/1/56 142/8/56
f 125/134/57 108/111/57 113/110/57 143/137/57 141/135/57
f 108/101/58 125/131/58 123/11/58 104/14/58
f 26/2/59 106/1/59 114/107/59 32/47/59
f 32/47/60 114/107/60 110/106/60 39/50/60
f 39/55/61 110/105/61 105/104/61 28/52/61
f 6/31/62 29/30/62 46/56/62 20/45/62
f 20/45/63 46/56/63 37/53/63 9/37/63
f 9/37/64 37/53/64 28/52/64 2/34/64
f 136/128/65 122/18/65 117/17/65 131/118/65
f 127/114/66 116/12/66 123/11/66 140/130/66
f 53/16/67 75/15/67 87/75/67 67/70/67
f 67/70/68 87/75/68 80/72/68 58/62/68
f 58/62/69 80/72/69 74/33/69 50/32/69
f 92/84/70 105/104/70 111/102/70 95/85/70
f 95/85/71 111/102/71 107/99/71 99/88/71
f 99/88/72 107/99/72 104/14/72 93/13/72
f 62/65/73 51/19/73 145/25/73 146/138/73
f 132/121/74 120/119/74 69/67/74 62/66/74 146/139/74
f 69/67/75 120/119/75 117/17/75 53/16/75
f 3/20/76 51/19/76 64/63/76 14/40/76
f 14/40/77 64/63/77 56/60/77 22/43/77
f 22/43/78 56/60/78 50/32/78 6/31/78
f 147/4/79 77/3/79 90/79/79 148/140/79
f 148/140/80 90/79/80 86/78/80 124/123/80 134/125/80
f 124/127/81 86/77/81 75/15/81 122/18/81
f 150/22/82 94/21/82 102/95/82 151/141/82
f 151/142/83 102/91/83 98/90/83 119/113/83 133/122/83
f 119/113/84 98/90/84 93/13/84 116/12/84
f 94/21/85 3/20/85 16/42/85 101/93/85
f 101/96/86 16/38/86 7/35/86 96/87/86
f 96/87/87 7/35/87 2/34/87 92/84/87
f 77/3/88 26/2/88 33/49/88 89/82/88
f 89/82/89 33/49/89 43/58/89 81/74/89
f 81/74/90 43/58/90 29/30/90 74/33/90
f 105/104/91 92/84/91 2/34/91 28/52/91
f 142/143/71 72/144/71 70/145/71 150/146/71 151/147/71 133/148/71 128/149/71 126/150/71 127/151/71 140/152/71 138/153/71 139/154/71 141/155/71 143/156/71
f 145/157/68 73/158/68 76/159/68 147/160/68 148/161/68 134/162/68 135/163/68 137/164/68 136/165/68 131/166/68 129/167/68 130/168/68 132/169/68 146/170/68
f 121/171/1 147/172/1 76/173/1 27/174/1 19/175/1 12/176/1 4/177/1 79/178/1 72/179/1 142/180/1
f 82/181/1 79/178/1 4/177/1 12/176/1 19/175/1 27/174/1 76/173/1 1/182/1 68/183/1
f 10/184/1 72/179/1 79/178/1 82/181/1 68/183/1
f 144/185/4 118/186/4 149/187/4 150/188/4 70/189/4 8/190/4 15/191/4 21/192/4 31/193/4 78/194/4 73/195/4 145/196/4
f 78/194/4 31/193/4 83/197/4
f 66/198/4 5/199/4 85/200/4
f 85/200/4 5/199/4 73/195/4 78/194/4 83/197/4 31/193/4 21/192/4 15/191/4 8/190/4 70/189/4 13/201/4 66/198/4
f 36/202/92 34/203/92 76/204/92 73/205/92
f 34/203/68 36/202/68 40/206/68 38/207/68
f 38/207/93 40/206/93 44/208/93 42/209/93
f 42/209/94 44/208/94 48/210/94 45/211/94
f 45/211/95 48/210/95 52/212/95 49/213/95
f 49/213/96 52/212/96 55/214/96 54/215/96
f 54/215/97 55/214/97 60/216/97 57/217/97
f 36/218/4 73/219/4 5/220/4 66/221/4 13/222/4 70/223/4 63/224/4 60/225/4 55/226/4 52/227/4 48/228/4 44/229/4 40/230/4
f 57/217/71 60/216/71 63/231/71 61/232/71
f 72/233/98 61/232/98 63/231/98 70/234/98
f 72/235/1 10/236/1 68/237/1 1/238/1 76/239/1 34/240/1 38/241/1 42/242/1 45/243/1 49/244/1 54/245/1 57/246/1 61/247/1
